<?xml version="1.0" encoding="UTF-8"?>
<svg version="1.1" xmlns="http://www.w3.org/2000/svg" width="150" height="167">
<path d="M0 0 C4.65822334 3.09041796 8.48090948 7.17435459 12.3684082 11.16064453 C13.87931025 12.70850602 15.40606418 14.23931595 16.93579102 15.76855469 C24.36547852 23.27365723 24.36547852 23.27365723 24.36547852 25.56933594 C25.02547852 25.56933594 25.68547852 25.56933594 26.36547852 25.56933594 C26.36547852 26.22933594 26.36547852 26.88933594 26.36547852 27.56933594 C27.02547852 27.56933594 27.68547852 27.56933594 28.36547852 27.56933594 C28.36547852 28.22933594 28.36547852 28.88933594 28.36547852 29.56933594 C29.02547852 29.56933594 29.68547852 29.56933594 30.36547852 29.56933594 C30.36547852 30.22933594 30.36547852 30.88933594 30.36547852 31.56933594 C31.02547852 31.56933594 31.68547852 31.56933594 32.36547852 31.56933594 C33.80419922 33.03369141 33.80419922 33.03369141 35.47875977 35.06152344 C39.90843209 40.27249772 44.76146598 44.98788334 49.66821289 49.74511719 C58.99467236 58.9207205 58.99467236 58.9207205 59.80297852 64.69433594 C59.29787723 68.01357294 58.90317776 69.35908176 56.36547852 71.56933594 C52.36431755 72.68076954 50.25029654 72.96468016 46.42797852 71.25683594 C45.40704102 70.42152344 45.40704102 70.42152344 44.36547852 69.56933594 C44.36547852 68.90933594 44.36547852 68.24933594 44.36547852 67.56933594 C43.70547852 67.56933594 43.04547852 67.56933594 42.36547852 67.56933594 C41.09594727 66.27636719 41.09594727 66.27636719 39.55297852 64.38183594 C36.27891275 60.53158882 32.8241983 56.93951356 29.24047852 53.38183594 C28.40915405 52.55546631 28.40915405 52.55546631 27.56103516 51.71240234 C25.83112787 49.99606973 24.09874889 48.28227186 22.36547852 46.56933594 C15.46555497 39.75036121 8.64799729 32.97080709 2.36547852 25.56933594 C0.69028791 23.67720992 -1.01829726 21.84044023 -2.75952148 20.00683594 C-3.56647461 19.13929687 -4.37342773 18.27175781 -5.20483398 17.37792969 C-7.46517858 15.33071036 -7.46517858 15.33071036 -10.14233398 15.51464844 C-13.27475648 16.84028178 -15.04123438 18.54952983 -17.38452148 21.00683594 C-18.16311523 21.80992188 -18.94170898 22.61300781 -19.74389648 23.44042969 C-21.66976849 25.42355213 -21.66976849 25.42355213 -22.63452148 27.56933594 C-23.29452148 27.56933594 -23.95452148 27.56933594 -24.63452148 27.56933594 C-24.63452148 28.22933594 -24.63452148 28.88933594 -24.63452148 29.56933594 C-25.29452148 29.56933594 -25.95452148 29.56933594 -26.63452148 29.56933594 C-26.89338135 30.15489258 -27.15224121 30.74044922 -27.41894531 31.34375 C-28.72673873 33.73817554 -30.13188249 35.28026923 -32.08374023 37.17871094 C-32.76758789 37.85160156 -33.45143555 38.52449219 -34.15600586 39.21777344 C-34.87079102 39.91128906 -35.58557617 40.60480469 -36.32202148 41.31933594 C-42.48231689 47.32548122 -48.21903144 53.53793786 -53.77905273 60.10058594 C-54.60469727 61.07511719 -54.60469727 61.07511719 -55.44702148 62.06933594 C-56.0103418 62.73964844 -56.57366211 63.40996094 -57.15405273 64.10058594 C-58.63452148 65.56933594 -58.63452148 65.56933594 -60.63452148 65.56933594 C-61.81179601 69.10115951 -61.75446406 71.88269856 -61.74804688 75.61108398 C-61.7481929 76.32353271 -61.74833893 77.03598145 -61.74848938 77.77001953 C-61.74779299 80.12372894 -61.74001341 82.47735911 -61.73217773 84.83105469 C-61.73031258 86.46344459 -61.72888914 88.09583505 -61.72789001 89.72822571 C-61.7240725 94.02395168 -61.71424873 98.31964383 -61.70318604 102.61535645 C-61.69295548 106.99910016 -61.68838887 111.38284935 -61.68334961 115.76660156 C-61.67262579 124.36752854 -61.65555853 132.96842803 -61.63452148 141.56933594 C-59.89137917 141.58479713 -59.89137917 141.58479713 -58.11302185 141.60057068 C-47.15162332 141.69840433 -36.19028029 141.80114765 -25.22897243 141.90867519 C-19.59391115 141.96379647 -13.95884459 142.01719895 -8.32373047 142.06665039 C-2.8836993 142.11445348 2.55627102 142.16680155 7.99622917 142.22227669 C10.06978779 142.24262815 12.14336304 142.26135283 14.21695137 142.27840996 C17.12532676 142.30261415 20.03358878 142.33264601 22.94189453 142.36401367 C23.79569702 142.36976913 24.64949951 142.3755246 25.5291748 142.38145447 C37.74540816 142.5308293 37.74540816 142.5308293 41.80297852 145.13183594 C44.19187855 148.85851999 43.92282864 151.18020374 43.36547852 155.56933594 C40.42926586 158.53681271 38.10214426 158.96524223 34.01318359 159.07006836 C32.92100021 159.10401199 31.82881683 159.13795563 30.70353699 159.17292786 C28.90617851 159.20479439 28.90617851 159.20479439 27.07250977 159.23730469 C25.80317093 159.26970749 24.53383209 159.30211029 23.22602844 159.335495 C18.93952241 159.43978558 14.65277517 159.50718192 10.36547852 159.56933594 C9.22954884 159.58665142 9.22954884 159.58665142 8.07067108 159.60431671 C-2.57066952 159.76384529 -13.21106406 159.8394494 -23.85351562 159.86450195 C-27.28695628 159.87350667 -30.72001106 159.89477478 -34.15332031 159.92602539 C-38.38190214 159.96449831 -42.61013778 159.98326238 -46.83888817 159.98778343 C-48.42602223 159.99261534 -50.01315213 160.00413079 -51.60018349 160.02282143 C-68.81971936 160.21390982 -68.81971936 160.21390982 -75.17182922 154.08638 C-79.56579805 149.12958401 -79.78927394 144.94514422 -79.81152344 138.61303711 C-79.81809464 137.80293686 -79.82466583 136.99283661 -79.83143616 136.15818787 C-79.8511532 133.47622586 -79.86282783 130.79431979 -79.87280273 128.11230469 C-79.87687826 127.19580957 -79.88095379 126.27931446 -79.88515282 125.33504677 C-79.90600616 120.48467866 -79.9203114 115.63433878 -79.9296875 110.78393555 C-79.94075402 105.77689254 -79.97515879 100.77029368 -80.0148592 95.76340771 C-80.04101487 91.91062092 -80.04937837 88.05794017 -80.05296898 84.2050724 C-80.05783718 82.3595104 -80.06945783 80.51395321 -80.08800697 78.66847801 C-80.11237771 76.08323403 -80.11143748 73.49914225 -80.10449219 70.91381836 C-80.12370728 69.77505249 -80.12370728 69.77505249 -80.14331055 68.61328125 C-80.0784799 61.97784794 -77.5012548 58.55363618 -73.09155273 53.86621094 C-71.78250977 52.60550781 -71.78250977 52.60550781 -70.44702148 51.31933594 C-67.11300704 48.26039687 -67.11300704 48.26039687 -64.63452148 44.56933594 C-63.97452148 44.56933594 -63.31452148 44.56933594 -62.63452148 44.56933594 C-62.39805908 44.00617676 -62.16159668 43.44301758 -61.91796875 42.86279297 C-60.33845137 40.04027322 -58.41016965 38.1374372 -56.09936523 35.87402344 C-55.20797852 34.99359375 -54.3165918 34.11316406 -53.39819336 33.20605469 C-52.46555664 32.2946875 -51.53291992 31.38332031 -50.57202148 30.44433594 C-48.72479982 28.63143979 -46.87963728 26.81644235 -45.03686523 24.99902344 C-44.21694092 24.19706543 -43.3970166 23.39510742 -42.55224609 22.56884766 C-40.58305808 20.71337233 -40.58305808 20.71337233 -39.63452148 18.56933594 C-38.97452148 18.56933594 -38.31452148 18.56933594 -37.63452148 18.56933594 C-37.63452148 17.90933594 -37.63452148 17.24933594 -37.63452148 16.56933594 C-36.97452148 16.56933594 -36.31452148 16.56933594 -35.63452148 16.56933594 C-35.63452148 15.90933594 -35.63452148 15.24933594 -35.63452148 14.56933594 C-34.97452148 14.56933594 -34.31452148 14.56933594 -33.63452148 14.56933594 C-33.63452148 13.90933594 -33.63452148 13.24933594 -33.63452148 12.56933594 C-32.97452148 12.56933594 -32.31452148 12.56933594 -31.63452148 12.56933594 C-31.36768555 11.98152344 -31.10084961 11.39371094 -30.82592773 10.78808594 C-27.56424886 4.71387742 -22.23005683 0.71087181 -15.89233398 -1.77050781 C-10.084586 -3.46862098 -5.43669498 -2.82448619 0 0 Z " fill="#04CB6C" transform="translate(83.634521484375,5.4306640625)"/>
<path d="M0 0 C4.65822334 3.09041796 8.48090948 7.17435459 12.3684082 11.16064453 C13.87931025 12.70850602 15.40606418 14.23931595 16.93579102 15.76855469 C24.36547852 23.27365723 24.36547852 23.27365723 24.36547852 25.56933594 C25.02547852 25.56933594 25.68547852 25.56933594 26.36547852 25.56933594 C26.36547852 26.22933594 26.36547852 26.88933594 26.36547852 27.56933594 C27.02547852 27.56933594 27.68547852 27.56933594 28.36547852 27.56933594 C28.36547852 28.22933594 28.36547852 28.88933594 28.36547852 29.56933594 C29.02547852 29.56933594 29.68547852 29.56933594 30.36547852 29.56933594 C30.36547852 30.22933594 30.36547852 30.88933594 30.36547852 31.56933594 C31.02547852 31.56933594 31.68547852 31.56933594 32.36547852 31.56933594 C33.80419922 33.03369141 33.80419922 33.03369141 35.47875977 35.06152344 C39.90843209 40.27249772 44.76146598 44.98788334 49.66821289 49.74511719 C58.99467236 58.9207205 58.99467236 58.9207205 59.80297852 64.69433594 C59.29787723 68.01357294 58.90317776 69.35908176 56.36547852 71.56933594 C52.36431755 72.68076954 50.25029654 72.96468016 46.42797852 71.25683594 C45.40704102 70.42152344 45.40704102 70.42152344 44.36547852 69.56933594 C44.36547852 68.90933594 44.36547852 68.24933594 44.36547852 67.56933594 C43.70547852 67.56933594 43.04547852 67.56933594 42.36547852 67.56933594 C41.09594727 66.27636719 41.09594727 66.27636719 39.55297852 64.38183594 C36.27891275 60.53158882 32.8241983 56.93951356 29.24047852 53.38183594 C28.40915405 52.55546631 28.40915405 52.55546631 27.56103516 51.71240234 C25.83112787 49.99606973 24.09874889 48.28227186 22.36547852 46.56933594 C15.46555497 39.75036121 8.64799729 32.97080709 2.36547852 25.56933594 C0.69028791 23.67720992 -1.01829726 21.84044023 -2.75952148 20.00683594 C-3.56647461 19.13929687 -4.37342773 18.27175781 -5.20483398 17.37792969 C-7.46517858 15.33071036 -7.46517858 15.33071036 -10.14233398 15.51464844 C-13.27475648 16.84028178 -15.04123438 18.54952983 -17.38452148 21.00683594 C-18.16311523 21.80992188 -18.94170898 22.61300781 -19.74389648 23.44042969 C-21.66976849 25.42355213 -21.66976849 25.42355213 -22.63452148 27.56933594 C-23.29452148 27.56933594 -23.95452148 27.56933594 -24.63452148 27.56933594 C-24.63452148 28.22933594 -24.63452148 28.88933594 -24.63452148 29.56933594 C-25.29452148 29.56933594 -25.95452148 29.56933594 -26.63452148 29.56933594 C-26.9709668 30.39691406 -26.9709668 30.39691406 -27.31420898 31.24121094 C-29.03837332 34.28145337 -31.25967971 36.38359267 -33.75952148 38.81933594 C-34.66959961 39.71136719 -35.57967773 40.60339844 -36.51733398 41.52246094 C-37.21600586 42.19792969 -37.91467773 42.87339844 -38.63452148 43.56933594 C-39.12952148 41.58933594 -39.12952148 41.58933594 -39.63452148 39.56933594 C-38.64452148 39.56933594 -37.65452148 39.56933594 -36.63452148 39.56933594 C-36.64354492 38.96605469 -36.65256836 38.36277344 -36.66186523 37.74121094 C-36.56709349 35.18649434 -36.37675295 33.02082045 -35.63452148 30.56933594 C-33.45334733 28.67219675 -31.29539549 27.80474173 -28.63452148 26.56933594 C-28.13952148 25.08433594 -28.13952148 25.08433594 -27.63452148 23.56933594 C-25.07202148 22.38183594 -25.07202148 22.38183594 -22.63452148 21.56933594 C-22.63452148 20.57933594 -22.63452148 19.58933594 -22.63452148 18.56933594 C-20.88452148 16.38183594 -20.88452148 16.38183594 -18.63452148 14.56933594 C-17.31452148 14.56933594 -15.99452148 14.56933594 -14.63452148 14.56933594 C-12.8604234 12.64910891 -12.8604234 12.64910891 -11.63452148 10.56933594 C-8.07671953 11.17924484 -4.95166259 12.14770404 -1.63452148 13.56933594 C-0.18927264 9.14328588 -0.18927264 9.14328588 0.36547852 4.56933594 C-1.29927834 4.22659188 -2.96647472 3.89569291 -4.63452148 3.56933594 C-5.54202148 3.34246094 -6.44952148 3.11558594 -7.38452148 2.88183594 C-11.75575581 2.46152494 -15.53459034 2.96535524 -19.63452148 4.56933594 C-22.0586815 6.89003559 -22.0586815 6.89003559 -23.63452148 9.56933594 C-25.13452148 11.38183594 -25.13452148 11.38183594 -26.63452148 12.56933594 C-27.95452148 12.56933594 -29.27452148 12.56933594 -30.63452148 12.56933594 C-30.63452148 14.21933594 -30.63452148 15.86933594 -30.63452148 17.56933594 C-32.28452148 17.89933594 -33.93452148 18.22933594 -35.63452148 18.56933594 C-35.90264648 19.53871094 -36.17077148 20.50808594 -36.44702148 21.50683594 C-36.83889648 22.51746094 -37.23077148 23.52808594 -37.63452148 24.56933594 C-38.62452148 24.89933594 -39.61452148 25.22933594 -40.63452148 25.56933594 C-40.63452148 26.22933594 -40.63452148 26.88933594 -40.63452148 27.56933594 C-44.93684707 32.3367778 -44.93684707 32.3367778 -48.63452148 33.56933594 C-49.30807148 35.23323276 -49.97363866 36.90036736 -50.63452148 38.56933594 C-54.92954686 43.66323603 -59.80714266 48.30031855 -65.63452148 51.56933594 C-66.29452148 51.56933594 -66.95452148 51.56933594 -67.63452148 51.56933594 C-67.63452148 52.22933594 -67.63452148 52.88933594 -67.63452148 53.56933594 C-69.38452148 55.07714844 -69.38452148 55.07714844 -71.63452148 56.69433594 C-72.37702148 57.23316406 -73.11952148 57.77199219 -73.88452148 58.32714844 C-74.46202148 58.73707031 -75.03952148 59.14699219 -75.63452148 59.56933594 C-76.29452148 59.23933594 -76.95452148 58.90933594 -77.63452148 58.56933594 C-76.35254883 57.30476563 -76.35254883 57.30476563 -75.04467773 56.01464844 C-73.92866101 54.90801001 -72.81278276 53.80123192 -71.69702148 52.69433594 C-70.85107422 51.86095703 -70.85107422 51.86095703 -69.98803711 51.01074219 C-66.9359212 48.07717883 -66.9359212 48.07717883 -64.63452148 44.56933594 C-63.97452148 44.56933594 -63.31452148 44.56933594 -62.63452148 44.56933594 C-62.39805908 44.00617676 -62.16159668 43.44301758 -61.91796875 42.86279297 C-60.33845137 40.04027322 -58.41016965 38.1374372 -56.09936523 35.87402344 C-55.20797852 34.99359375 -54.3165918 34.11316406 -53.39819336 33.20605469 C-52.46555664 32.2946875 -51.53291992 31.38332031 -50.57202148 30.44433594 C-48.72479982 28.63143979 -46.87963728 26.81644235 -45.03686523 24.99902344 C-44.21694092 24.19706543 -43.3970166 23.39510742 -42.55224609 22.56884766 C-40.58305808 20.71337233 -40.58305808 20.71337233 -39.63452148 18.56933594 C-38.97452148 18.56933594 -38.31452148 18.56933594 -37.63452148 18.56933594 C-37.63452148 17.90933594 -37.63452148 17.24933594 -37.63452148 16.56933594 C-36.97452148 16.56933594 -36.31452148 16.56933594 -35.63452148 16.56933594 C-35.63452148 15.90933594 -35.63452148 15.24933594 -35.63452148 14.56933594 C-34.97452148 14.56933594 -34.31452148 14.56933594 -33.63452148 14.56933594 C-33.63452148 13.90933594 -33.63452148 13.24933594 -33.63452148 12.56933594 C-32.97452148 12.56933594 -32.31452148 12.56933594 -31.63452148 12.56933594 C-31.36768555 11.98152344 -31.10084961 11.39371094 -30.82592773 10.78808594 C-27.56424886 4.71387742 -22.23005683 0.71087181 -15.89233398 -1.77050781 C-10.084586 -3.46862098 -5.43669498 -2.82448619 0 0 Z " fill="#08C96C" transform="translate(83.634521484375,5.4306640625)"/>
<path d="M0 0 C0.99 0.66 1.98 1.32 3 2 C2.56655273 2.45850342 2.13310547 2.91700684 1.68652344 3.3894043 C-0.29427917 5.4869271 -2.27215805 7.58718539 -4.25 9.6875 C-4.93191406 10.40873047 -5.61382812 11.12996094 -6.31640625 11.87304688 C-9.12065238 14.85426 -11.83741141 17.7919189 -14.359375 21.01953125 C-14.90078125 21.67308594 -15.4421875 22.32664062 -16 23 C-16.66 23 -17.32 23 -18 23 C-19.17727453 26.53182358 -19.11994258 29.31336262 -19.11352539 33.04174805 C-19.11367142 33.75419678 -19.11381744 34.46664551 -19.1139679 35.20068359 C-19.11327151 37.554393 -19.10549192 39.90802317 -19.09765625 42.26171875 C-19.0957911 43.89410865 -19.09436765 45.52649911 -19.09336853 47.15888977 C-19.08955101 51.45461575 -19.07972724 55.75030789 -19.06866455 60.04602051 C-19.05843399 64.42976423 -19.05386738 68.81351341 -19.04882812 73.19726562 C-19.0381043 81.7981926 -19.02103705 90.39909209 -19 99 C-17.25685768 99.0154612 -17.25685768 99.0154612 -15.47850037 99.03123474 C-4.51710183 99.1290684 6.4442412 99.23181172 17.40554905 99.33933926 C23.04061033 99.39446053 28.6756769 99.44786301 34.31079102 99.49731445 C39.75082218 99.54511755 45.19079251 99.59746562 50.63075066 99.65294075 C52.70430927 99.67329222 54.77788452 99.69201689 56.85147285 99.70907402 C59.75984824 99.73327821 62.66811027 99.76331007 65.57641602 99.79467773 C66.43021851 99.8004332 67.284021 99.80618866 68.16369629 99.81211853 C80.37992964 99.96149336 80.37992964 99.96149336 84.4375 102.5625 C86.82640003 106.28918405 86.55735012 108.6108678 86 113 C83.06691719 115.96263987 80.74257128 116.39676005 76.65869141 116.50512695 C75.56809418 116.53970505 74.47749695 116.57428314 73.35385132 116.60990906 C72.15684601 116.63164688 70.9598407 116.6533847 69.7265625 116.67578125 C68.45825592 116.70859695 67.18994934 116.74141266 65.88320923 116.77522278 C50.09525273 117.16005863 34.29813243 117.18709141 18.50634766 117.18530273 C14.16128408 117.18519887 9.81637583 117.19913422 5.47134972 117.21607494 C2.08797454 117.22714643 -1.29536145 117.22922387 -4.6787529 117.22869301 C-6.28394508 117.2298695 -7.88913839 117.23427262 -9.49431229 117.24202538 C-11.71068225 117.25177719 -13.92669117 117.2489727 -16.14306641 117.24291992 C-18.0270665 117.24505745 -18.0270665 117.24505745 -19.9491272 117.24723816 C-23 117 -23 117 -26 115 C9.97 114.67 45.94 114.34 83 114 C83 111.36 83 108.72 83 106 C79.06961614 102.06961614 72.64136623 102.88389169 67.33505249 102.85655212 C66.50623566 102.85708084 65.67741882 102.85760956 64.82348633 102.8581543 C63.48559807 102.85294266 63.48559807 102.85294266 62.12068176 102.84762573 C60.19516935 102.8403064 58.2696487 102.83494079 56.34412575 102.83133507 C53.29694991 102.82413587 50.24993195 102.80844692 47.20280457 102.78999329 C38.54318291 102.73766154 29.88365366 102.68949284 21.22387695 102.67407227 C15.91829023 102.66400711 10.61311017 102.63473158 5.30768394 102.59275246 C3.2874833 102.58042858 1.26722531 102.57532372 -0.7530117 102.57755089 C-3.57300928 102.57989661 -6.391831 102.55779739 -9.21166992 102.5300293 C-10.04655945 102.53663071 -10.88144897 102.54323212 -11.74163818 102.55003357 C-15.19616763 102.49406122 -17.56406123 102.27326225 -20.52088928 100.41981506 C-22.56669859 97.07288497 -22.48072675 94.66683243 -22.45410156 90.75292969 C-22.45468567 90.03058136 -22.45526978 89.30823303 -22.45587158 88.56399536 C-22.4530908 86.18279512 -22.42200139 83.8028558 -22.390625 81.421875 C-22.38316253 79.76850061 -22.37746963 78.11511736 -22.37347412 76.46173096 C-22.3582181 72.11482222 -22.31893695 67.76845001 -22.2746582 63.42175293 C-22.23370458 58.98436745 -22.21546294 54.54689508 -22.1953125 50.109375 C-22.1524423 41.40600407 -22.08419184 32.70306882 -22 24 C-21.34 24 -20.68 24 -20 24 C-20 23.34 -20 22.68 -20 22 C-19.01 22 -18.02 22 -17 22 C-16.9175 21.21625 -16.835 20.4325 -16.75 19.625 C-16.37875 18.325625 -16.37875 18.325625 -16 17 C-14.0625 15.9375 -14.0625 15.9375 -12 15 C-11.31513275 13.67592331 -10.65129797 12.34090759 -10 11 C-8.3540349 9.31288577 -6.68762851 7.6454378 -5 6 C-4.34 5.01 -3.68 4.02 -3 3 C-2.01 3 -1.02 3 0 3 C0 2.01 0 1.02 0 0 Z " fill="#A8E2C8" transform="translate(41,48)"/>
<path d="M0 0 C0.33 0 0.66 0 1 0 C1.01030746 1.05156281 1.02061493 2.10312561 1.03123474 3.18655396 C1.12905138 13.10342282 1.23179316 23.0202301 1.33933926 32.93699837 C1.39446998 38.03512587 1.44787403 43.1332592 1.49731445 48.23144531 C1.54510354 53.15276838 1.59745122 58.0740239 1.65294075 62.99526596 C1.67329852 64.87148223 1.69202222 66.74771698 1.70907402 68.62396622 C1.73326413 71.25474968 1.76329805 73.88540709 1.79467773 76.51611328 C1.8004332 77.2893544 1.80618866 78.06259552 1.81211853 78.85926819 C1.86818443 83.00286728 2.1978252 86.93327251 3 91 C5.64 91.33 8.28 91.66 11 92 C11 92.66 11 93.32 11 94 C45.32 94.33 79.64 94.66 115 95 C115 95.66 115 96.32 115 97 C101.1699794 97.14035036 87.3400697 97.24565933 73.50948238 97.31087303 C67.08720625 97.34217391 60.66540883 97.38462609 54.2434082 97.45263672 C48.04476281 97.5178705 41.84657762 97.5537154 35.64761543 97.56926346 C33.28369465 97.58034233 30.9197988 97.60197711 28.55607414 97.63438034 C25.24247869 97.67799477 21.93078007 97.68393168 18.61694336 97.68115234 C17.15390022 97.71350983 17.15390022 97.71350983 15.66130066 97.746521 C9.8526813 97.69386966 6.46870729 96.79836653 2.31720543 92.61180782 C-1.40872043 88.05255206 -1.28460064 83.42242311 -1.24291992 77.75317383 C-1.24481827 76.93635635 -1.24671661 76.11953888 -1.24867249 75.27796936 C-1.2523668 72.58755795 -1.24169731 69.89741852 -1.23046875 67.20703125 C-1.22927633 65.33566825 -1.22882392 63.46430465 -1.2290802 61.59294128 C-1.22751779 57.67658731 -1.21924483 53.76032505 -1.20581055 49.84399414 C-1.18878585 44.81661173 -1.18499735 39.78932974 -1.18575573 34.76192188 C-1.18548429 30.9007216 -1.18000781 27.0395434 -1.17275429 23.17835045 C-1.16956644 21.32393244 -1.16759994 19.46951193 -1.16686058 17.61509132 C-1.16470024 15.02956469 -1.15596368 12.44414612 -1.14526367 9.85864258 C-1.14571686 9.08822632 -1.14617004 8.31781006 -1.14663696 7.52404785 C-1.11448111 2.22896222 -1.11448111 2.22896222 0 0 Z " fill="#1EBE73" transform="translate(5,66)"/>
<path d="M0 0 C3.41339471 1.87467938 5.57134539 4.04451808 7.75 7.3125 C5.77 7.3125 3.79 7.3125 1.75 7.3125 C1.75 6.6525 1.75 5.9925 1.75 5.3125 C0.08524314 4.96975594 -1.58195323 4.63885698 -3.25 4.3125 C-4.1575 4.085625 -5.065 3.85875 -6 3.625 C-10.37123432 3.20468901 -14.15006885 3.7085193 -18.25 5.3125 C-20.67416001 7.63319965 -20.67416001 7.63319965 -22.25 10.3125 C-23.75 12.125 -23.75 12.125 -25.25 13.3125 C-26.57 13.3125 -27.89 13.3125 -29.25 13.3125 C-29.25 14.9625 -29.25 16.6125 -29.25 18.3125 C-30.9 18.6425 -32.55 18.9725 -34.25 19.3125 C-34.518125 20.281875 -34.78625 21.25125 -35.0625 22.25 C-35.454375 23.260625 -35.84625 24.27125 -36.25 25.3125 C-37.24 25.6425 -38.23 25.9725 -39.25 26.3125 C-39.25 26.9725 -39.25 27.6325 -39.25 28.3125 C-43.55232558 33.07994186 -43.55232558 33.07994186 -47.25 34.3125 C-47.92355 35.97639682 -48.58911718 37.64353142 -49.25 39.3125 C-53.54502537 44.40640009 -58.42262118 49.04348261 -64.25 52.3125 C-64.91 52.3125 -65.57 52.3125 -66.25 52.3125 C-66.25 52.9725 -66.25 53.6325 -66.25 54.3125 C-68 55.8203125 -68 55.8203125 -70.25 57.4375 C-70.9925 57.97632813 -71.735 58.51515625 -72.5 59.0703125 C-73.0775 59.48023438 -73.655 59.89015625 -74.25 60.3125 C-74.91 59.9825 -75.57 59.6525 -76.25 59.3125 C-74.96802734 58.04792969 -74.96802734 58.04792969 -73.66015625 56.7578125 C-72.54413953 55.65117407 -71.42826128 54.54439598 -70.3125 53.4375 C-69.46655273 52.60412109 -69.46655273 52.60412109 -68.60351562 51.75390625 C-65.55139972 48.8203429 -65.55139972 48.8203429 -63.25 45.3125 C-62.59 45.3125 -61.93 45.3125 -61.25 45.3125 C-61.0135376 44.74934082 -60.7770752 44.18618164 -60.53344727 43.60595703 C-58.95392988 40.78343729 -57.02564816 38.88060126 -54.71484375 36.6171875 C-53.82345703 35.73675781 -52.93207031 34.85632812 -52.01367188 33.94921875 C-51.08103516 33.03785156 -50.14839844 32.12648437 -49.1875 31.1875 C-47.34027833 29.37460385 -45.49511579 27.55960642 -43.65234375 25.7421875 C-42.83241943 24.94022949 -42.01249512 24.13827148 -41.16772461 23.31201172 C-39.1985366 21.45653639 -39.1985366 21.45653639 -38.25 19.3125 C-37.59 19.3125 -36.93 19.3125 -36.25 19.3125 C-36.25 18.6525 -36.25 17.9925 -36.25 17.3125 C-35.59 17.3125 -34.93 17.3125 -34.25 17.3125 C-34.25 16.6525 -34.25 15.9925 -34.25 15.3125 C-33.59 15.3125 -32.93 15.3125 -32.25 15.3125 C-32.25 14.6525 -32.25 13.9925 -32.25 13.3125 C-31.59 13.3125 -30.93 13.3125 -30.25 13.3125 C-29.98316406 12.7246875 -29.71632812 12.136875 -29.44140625 11.53125 C-26.17972738 5.45704148 -20.84553535 1.45403587 -14.5078125 -1.02734375 C-9.30197908 -2.54946459 -4.98263757 -2.25646249 0 0 Z " fill="#54CB97" transform="translate(82.25,4.6875)"/>
<path d="M0 0 C0.33 0.66 0.66 1.32 1 2 C0.360625 2.598125 -0.27875 3.19625 -0.9375 3.8125 C-3.20310389 5.90810337 -3.20310389 5.90810337 -4 9 C-4.99 9 -5.98 9 -7 9 C-7 9.66 -7 10.32 -7 11 C-7.66 11 -8.32 11 -9 11 C-8.93883516 20.59678925 -8.86176291 30.19327955 -8.76428509 39.78976917 C-8.71952572 44.24565135 -8.68028207 48.70144092 -8.65356445 53.1574707 C-8.62758672 57.45647199 -8.58722412 61.75511796 -8.53681374 66.05389977 C-8.52010745 67.69532546 -8.50861664 69.33681266 -8.50238609 70.97831154 C-8.49278554 73.27473981 -8.46477686 75.57025131 -8.43237305 77.86645508 C-8.42126999 79.17439529 -8.41016693 80.48233551 -8.39872742 81.82991028 C-8.28070436 84.9270001 -8.28070436 84.9270001 -6.7129755 86.67363071 C-3.716399 88.99390151 0.03303132 88.42956038 3.67480469 88.41650391 C4.56132721 88.42508926 5.44784973 88.43367462 6.36123657 88.44252014 C9.29819609 88.4676553 12.23481759 88.47196721 15.171875 88.4765625 C17.21349114 88.4908714 19.2550976 88.50662821 21.29669189 88.52377319 C26.67966785 88.56569907 32.06258393 88.5906403 37.44567871 88.61126709 C46.047863 88.64701816 54.64989874 88.70824576 63.25193024 88.76975632 C66.25362625 88.78878829 69.25528287 88.80056354 72.25701904 88.81118774 C74.10721924 88.82140628 75.95741868 88.83176473 77.80761719 88.84228516 C79.05319901 88.84384865 79.05319901 88.84384865 80.32394409 88.84544373 C91.98023924 88.9270021 91.98023924 88.9270021 96 91.0625 C97.70165035 94.35944755 96.64478904 97.42435171 96 101 C94.02 100.505 94.02 100.505 92 100 C92.66 99.34 93.32 98.68 94 98 C94.16687448 95.41645782 94.16687448 95.41645782 94 93 C90.61483896 91.30741948 86.76464557 91.83744496 83.03979492 91.82641602 C82.11119156 91.819729 81.1825882 91.81304199 80.22584534 91.80615234 C78.20476289 91.79208103 76.18366435 91.78019364 74.1625576 91.77020454 C70.96429498 91.75382341 67.76615129 91.73058609 64.56794739 91.70530701 C55.47301134 91.6344558 46.37802627 91.5744241 37.28295898 91.52319336 C31.72388478 91.49139853 26.16494621 91.45011926 20.60598183 91.40299797 C18.48612217 91.38697825 16.36623124 91.37465655 14.24632835 91.36609077 C11.28020846 91.35393466 8.3144072 91.32978254 5.34838867 91.30297852 C4.47183624 91.30238937 3.59528381 91.30180023 2.69216919 91.30119324 C-5.52483578 91.20281774 -5.52483578 91.20281774 -9 89 C-11.28725577 85.13557321 -11.24807669 81.48628137 -11.24291992 77.07006836 C-11.24481827 76.39301346 -11.24671661 75.71595856 -11.24867249 75.01838684 C-11.25236139 72.79208603 -11.24170351 70.56611531 -11.23046875 68.33984375 C-11.2292758 66.78715554 -11.22882403 65.2344666 -11.2290802 63.68177795 C-11.22751861 60.4329067 -11.21925335 57.18414615 -11.20581055 53.93530273 C-11.18880708 49.77352648 -11.18499684 45.61187158 -11.18575573 41.45006466 C-11.18548368 38.24588363 -11.17999698 35.04172906 -11.17275429 31.83755684 C-11.16957545 30.3029761 -11.16760205 28.76839237 -11.16686058 27.23380852 C-11.16468949 25.08933287 -11.15592907 22.94498519 -11.14526367 20.80053711 C-11.14145187 19.5809581 -11.13764008 18.36137909 -11.13371277 17.10484314 C-11.02311792 14.53680372 -10.76004673 12.43837202 -10 10 C-9.34 10 -8.68 10 -8 10 C-7.87625 9.360625 -7.7525 8.72125 -7.625 8.0625 C-7.41875 7.381875 -7.2125 6.70125 -7 6 C-6.34 5.67 -5.68 5.34 -5 5 C-4.690625 4.34 -4.38125 3.68 -4.0625 3 C-3 1 -3 1 0 0 Z " fill="#21BB73" transform="translate(28,61)"/>
<path d="M0 0 C0.99 0.66 1.98 1.32 3 2 C2.56655273 2.45850342 2.13310547 2.91700684 1.68652344 3.3894043 C-0.29427917 5.4869271 -2.27215805 7.58718539 -4.25 9.6875 C-4.93191406 10.40873047 -5.61382812 11.12996094 -6.31640625 11.87304688 C-9.12065238 14.85426 -11.83741141 17.7919189 -14.359375 21.01953125 C-14.90078125 21.67308594 -15.4421875 22.32664062 -16 23 C-16.66 23 -17.32 23 -18 23 C-19.17727453 26.53182358 -19.11994258 29.31336262 -19.11352539 33.04174805 C-19.11367142 33.75419678 -19.11381744 34.46664551 -19.1139679 35.20068359 C-19.11327151 37.554393 -19.10549192 39.90802317 -19.09765625 42.26171875 C-19.0957911 43.89410865 -19.09436765 45.52649911 -19.09336853 47.15888977 C-19.08955101 51.45461575 -19.07972724 55.75030789 -19.06866455 60.04602051 C-19.05843399 64.42976423 -19.05386738 68.81351341 -19.04882812 73.19726562 C-19.0381043 81.7981926 -19.02103705 90.39909209 -19 99 C-15.15226143 100.28257952 -11.50114237 100.17721415 -7.48950195 100.20532227 C-6.18674316 100.22017166 -6.18674316 100.22017166 -4.85766602 100.23532104 C-1.98456557 100.26692944 0.88855142 100.29169092 3.76171875 100.31640625 C5.75283744 100.33697634 7.74395177 100.35797283 9.73506165 100.37937927 C14.97767608 100.43459421 20.22032988 100.48400608 25.4630127 100.53222656 C30.81196602 100.58244577 36.16086211 100.63812965 41.50976562 100.69335938 C52.00646154 100.8009339 62.50320712 100.90238048 73 101 C73 101.33 73 101.66 73 102 C61.20422394 102.09262544 49.4085342 102.16372724 37.61246872 102.20724869 C32.13523272 102.22813543 26.65824528 102.25647319 21.18115234 102.30175781 C15.8967672 102.34517637 10.61262133 102.36912892 5.32807159 102.37950897 C3.31059247 102.38690749 1.29312664 102.40135487 -0.72425079 102.42292023 C-3.54725076 102.45190101 -6.36925835 102.45595822 -9.19238281 102.45410156 C-10.02891891 102.46848267 -10.86545502 102.48286377 -11.7273407 102.49768066 C-15.19189167 102.47297798 -17.55296794 102.27924088 -20.52209473 100.42456055 C-22.56419429 97.07441753 -22.4807342 94.66792707 -22.45410156 90.75292969 C-22.45468567 90.03058136 -22.45526978 89.30823303 -22.45587158 88.56399536 C-22.4530908 86.18279512 -22.42200139 83.8028558 -22.390625 81.421875 C-22.38316253 79.76850061 -22.37746963 78.11511736 -22.37347412 76.46173096 C-22.3582181 72.11482222 -22.31893695 67.76845001 -22.2746582 63.42175293 C-22.23370458 58.98436745 -22.21546294 54.54689508 -22.1953125 50.109375 C-22.1524423 41.40600407 -22.08419184 32.70306882 -22 24 C-21.34 24 -20.68 24 -20 24 C-20 23.34 -20 22.68 -20 22 C-19.01 22 -18.02 22 -17 22 C-16.9175 21.21625 -16.835 20.4325 -16.75 19.625 C-16.5025 18.75875 -16.255 17.8925 -16 17 C-14.0625 15.9375 -14.0625 15.9375 -12 15 C-11.31513275 13.67592331 -10.65129797 12.34090759 -10 11 C-8.3540349 9.31288577 -6.68762851 7.6454378 -5 6 C-4.34 5.01 -3.68 4.02 -3 3 C-2.01 3 -1.02 3 0 3 C0 2.01 0 1.02 0 0 Z " fill="#59B58D" transform="translate(41,48)"/>
<path d="M0 0 C0.66 0 1.32 0 2 0 C3.02611949 1.65071396 4.02308143 3.31970006 5 5 C7.06650528 7.4258975 9.09841136 8.69928785 12 10 C12 10.99 12 11.98 12 13 C12.66 13 13.32 13 14 13 C14.33 13.66 14.66 14.32 15 15 C17.02463255 15.65213292 17.02463255 15.65213292 19 16 C19 16.66 19 17.32 19 18 C19.99 18 20.98 18 22 18 C22 18.66 22 19.32 22 20 C22.66 20.33 23.32 20.66 24 21 C23.67 21.66 23.34 22.32 23 23 C23.66 23.33 24.32 23.66 25 24 C28.125 26.375 28.125 26.375 31 29 C31 29.99 31 30.98 31 32 C33.85778033 32.68493373 33.85778033 32.68493373 37 33 C37.99 32.34 38.98 31.68 40 31 C39.54177532 27.53058454 39.10868317 24.32604951 38 21 C37.401875 20.896875 36.80375 20.79375 36.1875 20.6875 C32.82118598 19.6295156 31.91952268 16.87928402 30 14 C29.030625 13.360625 28.06125 12.72125 27.0625 12.0625 C23.43694256 9.62079805 21.03172282 6.87465724 19 3 C19 2.01 19 1.02 19 0 C19.66 0 20.32 0 21 0 C22.3046875 1.328125 22.3046875 1.328125 23.875 3.25 C27.58350916 7.63775189 31.59393102 11.63694045 35.73583984 15.61035156 C39.7373801 19.51907595 43.63572868 23.39806199 44.4375 29.125 C43.93239872 32.444237 43.53769925 33.78974582 41 36 C36.99883904 37.1114336 34.88481802 37.39534422 31.0625 35.6875 C30.381875 35.130625 29.70125 34.57375 29 34 C29 33.34 29 32.68 29 32 C28.34 32 27.68 32 27 32 C25.67553711 30.65429688 25.67553711 30.65429688 24.08984375 28.71875 C19.22790116 23.00089374 13.88753321 17.77940237 8.5625 12.5 C7.5342702 11.47679861 6.50627374 10.45336267 5.47851562 9.4296875 C2.98835662 6.95042001 0.49507167 4.47432462 -2 2 C-1.34 1.34 -0.68 0.68 0 0 Z " fill="#62C299" transform="translate(99,41)"/>
<path d="M0 0 C0.33 0 0.66 0 1 0 C1.01030746 1.05156281 1.02061493 2.10312561 1.03123474 3.18655396 C1.12905138 13.10342282 1.23179316 23.0202301 1.33933926 32.93699837 C1.39446998 38.03512587 1.44787403 43.1332592 1.49731445 48.23144531 C1.54510354 53.15276838 1.59745122 58.0740239 1.65294075 62.99526596 C1.67329852 64.87148223 1.69202222 66.74771698 1.70907402 68.62396622 C1.73326413 71.25474968 1.76329805 73.88540709 1.79467773 76.51611328 C1.8004332 77.2893544 1.80618866 78.06259552 1.81211853 78.85926819 C1.86818443 83.00286728 2.1978252 86.93327251 3 91 C4.4540625 91.37125 4.4540625 91.37125 5.9375 91.75 C6.948125 92.1625 7.95875 92.575 9 93 C9.875 95.125 9.875 95.125 10 97 C4.96627156 95.56179187 3.01044111 93.09754485 0 89 C-1.23797893 85.2860632 -1.13954119 81.84761527 -1.12939453 77.98022461 C-1.13114685 77.16369919 -1.13289917 76.34717377 -1.13470459 75.50590515 C-1.13910891 72.80469645 -1.13619036 70.10355312 -1.1328125 67.40234375 C-1.13348588 65.52812182 -1.13445619 63.65389998 -1.13571167 61.77967834 C-1.13718666 57.85140145 -1.13504019 53.9231473 -1.13037109 49.99487305 C-1.12467 44.95174573 -1.12795648 39.90867159 -1.13394356 34.86554623 C-1.13755116 30.99576921 -1.13640973 27.12600488 -1.13381577 23.25622749 C-1.13314725 21.39622555 -1.13397229 19.53622246 -1.13629532 17.67622185 C-1.13882551 15.08091033 -1.13497621 12.48568587 -1.12939453 9.89038086 C-1.13141876 9.11682251 -1.13344299 8.34326416 -1.13552856 7.54626465 C-1.11426507 2.22853014 -1.11426507 2.22853014 0 0 Z " fill="#71CBA7" transform="translate(5,66)"/>
<path d="M0 0 C3.11954738 0.33724836 4.6209965 0.6209965 6.875 2.875 C7.24625 3.57625 7.6175 4.2775 8 5 C7.67 5.99 7.34 6.98 7 8 C6.4121875 7.2265625 6.4121875 7.2265625 5.8125 6.4375 C4.0819453 4.73763566 4.0819453 4.73763566 1.68359375 5.1328125 C-1.71756692 6.23187752 -3.29412346 7.86212611 -5.75 10.4375 C-6.52859375 11.24058594 -7.3071875 12.04367188 -8.109375 12.87109375 C-10.035247 14.85421619 -10.035247 14.85421619 -11 17 C-11.66 17 -12.32 17 -13 17 C-13 17.66 -13 18.32 -13 19 C-13.66 19 -14.32 19 -15 19 C-15.33644531 19.82757813 -15.33644531 19.82757813 -15.6796875 20.671875 C-17.40385183 23.71211744 -19.62515822 25.81425673 -22.125 28.25 C-23.03507812 29.14203125 -23.94515625 30.0340625 -24.8828125 30.953125 C-25.58148438 31.62859375 -26.28015625 32.3040625 -27 33 C-27.33 31.68 -27.66 30.36 -28 29 C-27.01 29 -26.02 29 -25 29 C-25.00902344 28.39671875 -25.01804688 27.7934375 -25.02734375 27.171875 C-24.93257201 24.6171584 -24.74223147 22.45148451 -24 20 C-21.81882585 18.10286081 -19.660874 17.23540579 -17 16 C-16.67 15.01 -16.34 14.02 -16 13 C-13.4375 11.8125 -13.4375 11.8125 -11 11 C-11 10.01 -11 9.02 -11 8 C-9.25 5.8125 -9.25 5.8125 -7 4 C-5.68 4 -4.36 4 -3 4 C-1.22590192 2.07977297 -1.22590192 2.07977297 0 0 Z " fill="#1EBE76" transform="translate(72,16)"/>
<path d="M0 0 C-0.66 1.32 -1.32 2.64 -2 4 C-2.66 4 -3.32 4 -4 4 C-4 4.66 -4 5.32 -4 6 C-8.30232558 10.76744186 -8.30232558 10.76744186 -12 12 C-12.67355 13.66389682 -13.33911718 15.33103142 -14 17 C-18.29502537 22.09390009 -23.17262118 26.73098261 -29 30 C-29.66 30 -30.32 30 -31 30 C-31 30.66 -31 31.32 -31 32 C-32.75 33.5078125 -32.75 33.5078125 -35 35.125 C-35.7425 35.66382813 -36.485 36.20265625 -37.25 36.7578125 C-37.8275 37.16773438 -38.405 37.57765625 -39 38 C-39.66 37.67 -40.32 37.34 -41 37 C-39.71802734 35.73542969 -39.71802734 35.73542969 -38.41015625 34.4453125 C-37.29413953 33.33867407 -36.17826128 32.23189598 -35.0625 31.125 C-34.49853516 30.56941406 -33.93457031 30.01382813 -33.35351562 29.44140625 C-30.30139972 26.5078429 -30.30139972 26.5078429 -28 23 C-27.34 23 -26.68 23 -26 23 C-25.63841797 22.15115234 -25.63841797 22.15115234 -25.26953125 21.28515625 C-23.7450348 18.54106265 -21.91341048 16.64844638 -19.6875 14.4375 C-18.92824219 13.67308594 -18.16898438 12.90867187 -17.38671875 12.12109375 C-15.03892614 10.03459394 -12.69837488 8.58828395 -10 7 C-7.86172439 5.20076629 -5.82221823 3.32147496 -3.76953125 1.42578125 C-2 0 -2 0 0 0 Z " fill="#17C071" transform="translate(47,27)"/>
<path d="M0 0 C0 0.99 0 1.98 0 3 C-0.97405792 3.71802292 -1.94811584 4.43604584 -2.95169067 5.17582703 C-5.82393549 7.44703847 -5.97355895 7.86936769 -6.75949097 11.75227356 C-6.79440439 13.23003267 -6.79677382 14.70878811 -6.77294922 16.18676758 C-6.78357895 16.99704407 -6.79420868 17.80732056 -6.80516052 18.64215088 C-6.83318059 21.31024546 -6.81916157 23.97635726 -6.8046875 26.64453125 C-6.81593905 28.49828314 -6.82982032 30.35202078 -6.84622192 32.20573425 C-6.88226849 37.07698765 -6.88263239 41.94761355 -6.87554932 46.81896973 C-6.87463661 51.79283889 -6.90749211 56.76647264 -6.9375 61.74023438 C-6.99137023 71.4935553 -7.00754309 81.24654674 -7 91 C-6.01 91.33 -5.02 91.66 -4 92 C-2.8125 95.5625 -2.8125 95.5625 -2 99 C-3.875 98.875 -3.875 98.875 -6 98 C-8.10926033 93.2178336 -8.30745264 88.6313014 -8.32226562 83.48779297 C-8.33219543 82.65453491 -8.34212524 81.82127686 -8.35235596 80.96276855 C-8.38142916 78.22254071 -8.39516906 75.48254383 -8.40625 72.7421875 C-8.41776063 70.83220415 -8.429276 68.92222084 -8.4407959 67.01223755 C-8.46176294 63.01612272 -8.47348489 59.02008782 -8.48046875 55.02392578 C-8.49147167 49.90104696 -8.53961675 44.77922238 -8.59641266 39.65667534 C-8.63362322 35.71559526 -8.64407392 31.77477136 -8.6471405 27.83353043 C-8.65319709 25.94442053 -8.66926659 24.05531532 -8.69551086 22.16637802 C-8.72957438 19.52789886 -8.7258928 16.89202691 -8.71289062 14.25341797 C-8.73132019 13.47306183 -8.74974976 12.69270569 -8.76873779 11.88870239 C-8.73498535 9.70553589 -8.73498535 9.70553589 -8 6 C-5.08044434 3.60916138 -5.08044434 3.60916138 -2 2 C-1.34 1.34 -0.68 0.68 0 0 Z " fill="#20BA76" transform="translate(14,59)"/>
<path d="M0 0 C0.99 0.66 1.98 1.32 3 2 C2.56655273 2.45850342 2.13310547 2.91700684 1.68652344 3.3894043 C-0.29427917 5.4869271 -2.27215805 7.58718539 -4.25 9.6875 C-4.93191406 10.40873047 -5.61382812 11.12996094 -6.31640625 11.87304688 C-9.12065238 14.85426 -11.83741141 17.7919189 -14.359375 21.01953125 C-14.90078125 21.67308594 -15.4421875 22.32664062 -16 23 C-16.66 23 -17.32 23 -18 23 C-18.92923977 25.78771931 -19.14867338 27.58234248 -19.20532227 30.47143555 C-19.2352401 31.82249641 -19.2352401 31.82249641 -19.26576233 33.20085144 C-19.29083107 34.65410576 -19.29083107 34.65410576 -19.31640625 36.13671875 C-19.33718735 37.13129593 -19.35796844 38.12587311 -19.37937927 39.15058899 C-19.44479412 42.32948867 -19.5037224 45.50847134 -19.5625 48.6875 C-19.60569288 50.84180548 -19.64930742 52.99610254 -19.69335938 55.15039062 C-19.80046726 60.43350588 -19.90224873 65.71670379 -20 71 C-20.33 71 -20.66 71 -21 71 C-21.02529589 64.34310718 -21.04284396 57.6862267 -21.05493164 51.02929688 C-21.05996926 48.76334164 -21.06679952 46.49738967 -21.07543945 44.23144531 C-21.08752996 40.97980953 -21.09323392 37.72821661 -21.09765625 34.4765625 C-21.10281754 33.45881744 -21.10797882 32.44107239 -21.11329651 31.39248657 C-21.11337204 30.45166229 -21.11344757 29.51083801 -21.11352539 28.54150391 C-21.115746 27.71099518 -21.11796661 26.88048645 -21.12025452 26.02481079 C-21 24 -21 24 -20 22 C-19.01 22 -18.02 22 -17 22 C-16.9175 21.21625 -16.835 20.4325 -16.75 19.625 C-16.5025 18.75875 -16.255 17.8925 -16 17 C-14.0625 15.9375 -14.0625 15.9375 -12 15 C-11.31513275 13.67592331 -10.65129797 12.34090759 -10 11 C-8.3540349 9.31288577 -6.68762851 7.6454378 -5 6 C-4.34 5.01 -3.68 4.02 -3 3 C-2.01 3 -1.02 3 0 3 C0 2.01 0 1.02 0 0 Z " fill="#80D3AF" transform="translate(41,48)"/>
<path d="M0 0 C0.99 0.33 1.98 0.66 3 1 C2.20335937 1.76183594 2.20335937 1.76183594 1.390625 2.5390625 C0.68421875 3.22742187 -0.0221875 3.91578125 -0.75 4.625 C-1.44609375 5.29789063 -2.1421875 5.97078125 -2.859375 6.6640625 C-7.64756626 11.88913253 -9.59560236 15.84723703 -9.54589844 22.93310547 C-9.55623611 23.7045137 -9.56657379 24.47592194 -9.57722473 25.27070618 C-9.60656128 27.803082 -9.60814991 30.3346554 -9.609375 32.8671875 C-9.62436289 34.62982703 -9.64109132 36.39245254 -9.65948486 38.15505981 C-9.70310247 42.78117532 -9.72314503 47.4071014 -9.73822021 52.03338623 C-9.75781149 56.75935033 -9.79977923 61.48511046 -9.83984375 66.2109375 C-9.91508526 75.47389533 -9.96541339 84.73680737 -10 94 C-10.33 94 -10.66 94 -11 94 C-11 66.28 -11 38.56 -11 10 C-9.68 9.34 -8.36 8.68 -7 8 C-5.62131719 6.37064759 -4.28725907 4.70250393 -3 3 C-2.01769502 1.9826127 -1.02530403 0.97403883 0 0 Z " fill="#0EC471" transform="translate(18,56)"/>
<path d="M0 0 C8.36628849 7.05024311 8.36628849 7.05024311 11 10 C11 10.66 11 11.32 11 12 C11.66 12 12.32 12 13 12 C13 12.66 13 13.32 13 14 C13.66 14 14.32 14 15 14 C15 14.66 15 15.32 15 16 C15.66 16 16.32 16 17 16 C17 16.66 17 17.32 17 18 C17.66 18 18.32 18 19 18 C19.66 19.32 20.32 20.64 21 22 C18.125 21.75 18.125 21.75 15 21 C13.8125 19.0625 13.8125 19.0625 13 17 C12.01 16.34 11.02 15.68 10 15 C10 14.34 10 13.68 10 13 C9.40703125 12.90203125 8.8140625 12.8040625 8.203125 12.703125 C4.33921366 11.46996181 2.1452652 8.33006853 0 5 C-0.375 2.0625 -0.375 2.0625 0 0 Z " fill="#50CB95" transform="translate(97,19)"/>
<path d="M0 0 C0.33 1.32 0.66 2.64 1 4 C0.34 4 -0.32 4 -1 4 C-1.28875 4.598125 -1.5775 5.19625 -1.875 5.8125 C-3.82744649 9.60892373 -5.24887385 11.18127217 -9 13 C-11.42545327 15.05230662 -12.7047281 17.1105473 -14 20 C-14.66 20 -15.32 20 -16 20 C-16 20.66 -16 21.32 -16 22 C-17.75 23.5078125 -17.75 23.5078125 -20 25.125 C-20.7425 25.66382812 -21.485 26.20265625 -22.25 26.7578125 C-22.8275 27.16773437 -23.405 27.57765625 -24 28 C-24.66 27.67 -25.32 27.34 -26 27 C-25.14535156 26.15695313 -24.29070313 25.31390625 -23.41015625 24.4453125 C-22.29413953 23.33867407 -21.17826128 22.23189598 -20.0625 21.125 C-19.49853516 20.56941406 -18.93457031 20.01382813 -18.35351562 19.44140625 C-15.30139972 16.5078429 -15.30139972 16.5078429 -13 13 C-12.34 13 -11.68 13 -11 13 C-10.76539063 12.43796875 -10.53078125 11.8759375 -10.2890625 11.296875 C-8.69337 8.45364109 -6.71075457 6.51901873 -4.375 4.25 C-3.55773437 3.45078125 -2.74046875 2.6515625 -1.8984375 1.828125 C-0.95871094 0.92320313 -0.95871094 0.92320313 0 0 Z " fill="#7DD6AC" transform="translate(32,37)"/>
<path d="M0 0 C0.66 0 1.32 0 2 0 C3.3046875 1.328125 3.3046875 1.328125 4.875 3.25 C8.62517459 7.68058601 12.67380896 11.73535618 16.82373047 15.78613281 C19.4552905 18.37413245 21.99132387 20.89067942 24 24 C24 24.66 24 25.32 24 26 C22.0625 25.1875 22.0625 25.1875 20 24 C19.67 23.01 19.34 22.02 19 21 C18.401875 20.896875 17.80375 20.79375 17.1875 20.6875 C13.82118598 19.6295156 12.91952268 16.87928402 11 14 C10.030625 13.360625 9.06125 12.72125 8.0625 12.0625 C4.43694256 9.62079805 2.03172282 6.87465724 0 3 C0 2.01 0 1.02 0 0 Z " fill="#79CBA9" transform="translate(118,41)"/>
<path d="M0 0 C7.95467422 -0.61189802 7.95467422 -0.61189802 11.5625 1.5 C13.74510377 5.29583264 13.55302077 7.64496146 13 12 C10.81250295 14.25144221 9.46723646 14.9401144 6.34277344 15.34057617 C5.35825195 15.32486572 4.37373047 15.30915527 3.359375 15.29296875 C1.75449219 15.2784668 1.75449219 15.2784668 0.1171875 15.26367188 C-0.99398437 15.23853516 -2.10515625 15.21339844 -3.25 15.1875 C-4.93996094 15.16719727 -4.93996094 15.16719727 -6.6640625 15.14648438 C-9.44319264 15.11115645 -12.22135363 15.0618252 -15 15 C-15 14.67 -15 14.34 -15 14 C-2.625 13.505 -2.625 13.505 10 13 C10 10.36 10 7.72 10 5 C8.04286944 2.64156025 8.04286944 2.64156025 4.4375 2.5 C3.303125 2.335 2.16875 2.17 1 2 C0.67 1.34 0.34 0.68 0 0 Z " fill="#75C29D" transform="translate(114,149)"/>
<path d="M0 0 C3.20107939 0.16415792 4.59058828 0.59058828 6.875 2.875 C7.24625 3.57625 7.6175 4.2775 8 5 C7.67 5.99 7.34 6.98 7 8 C6.608125 7.484375 6.21625 6.96875 5.8125 6.4375 C4.08143816 4.7372688 4.08143816 4.7372688 1.6796875 5.1328125 C-1.71410116 6.23109396 -3.25217595 7.85332762 -5.6875 10.4375 C-6.45449219 11.24058594 -7.22148438 12.04367188 -8.01171875 12.87109375 C-8.99591797 13.92490234 -8.99591797 13.92490234 -10 15 C-10.66 15.66 -11.32 16.32 -12 17 C-11.45276317 13.62537285 -10.9451 11.91765 -9 9 C-8.34 9 -7.68 9 -7 9 C-7 8.34 -7 7.68 -7 7 C-5.37660195 5.29115995 -3.70680947 3.62553283 -2 2 C-1.34 1.34 -0.68 0.68 0 0 Z " fill="#6CC6A0" transform="translate(72,16)"/>
<path d="M0 0 C4.82034262 0.41317222 6.90992611 2.38019915 10 6 C10 6.66 10 7.32 10 8 C12.475 8.99 12.475 8.99 15 10 C15 10.99 15 11.98 15 13 C15.66 13 16.32 13 17 13 C17 14.65 17 16.3 17 18 C16.30519531 17.30390625 15.61039063 16.6078125 14.89453125 15.890625 C12.89871092 13.89410067 10.89498791 11.90587316 8.88671875 9.921875 C7.82029013 8.86460589 6.7538841 7.80731401 5.6875 6.75 C5.13771484 6.20859375 4.58792969 5.6671875 4.02148438 5.109375 C2.6620467 3.75838103 1.32847876 2.3814484 0 1 C0 0.67 0 0.34 0 0 Z " fill="#5CC695" transform="translate(80,24)"/>
<path d="M0 0 C0.66 0 1.32 0 2 0 C3.02611949 1.65071396 4.02308143 3.31970006 5 5 C7.06650528 7.4258975 9.09841136 8.69928785 12 10 C12 10.99 12 11.98 12 13 C12.66 13 13.32 13 14 13 C14.99 14.485 14.99 14.485 16 16 C15.67 16.99 15.34 17.98 15 19 C9.39 13.39 3.78 7.78 -2 2 C-1.34 1.34 -0.68 0.68 0 0 Z " fill="#76D0A7" transform="translate(99,41)"/>
<path d="M0 0 C0.99 0 1.98 0 3 0 C3 1.65 3 3.3 3 5 C1.35 5.33 -0.3 5.66 -2 6 C-2.33 6.99 -2.66 7.98 -3 9 C-4.99284138 10.3440093 -6.99419671 11.67541292 -9 13 C-11.09479193 14.92456053 -13.03394332 16.94032158 -15 19 C-15.66 18.67 -16.32 18.34 -17 18 C-16.28972656 17.30132812 -15.57945313 16.60265625 -14.84765625 15.8828125 C-13.92855469 14.97273438 -13.00945313 14.06265625 -12.0625 13.125 C-11.14597656 12.22007813 -10.22945312 11.31515625 -9.28515625 10.3828125 C-6.98812373 8.22317745 -6.98812373 8.22317745 -6 6 C-5.34 6 -4.68 6 -4 6 C-4 5.34 -4 4.68 -4 4 C-3.34 4 -2.68 4 -2 4 C-2 3.34 -2 2.68 -2 2 C-1.34 2 -0.68 2 0 2 C0 1.34 0 0.68 0 0 Z " fill="#5DCD9B" transform="translate(50,18)"/>
<path d="M0 0 C0.99 0 1.98 0 3 0 C2.34 1.65 1.68 3.3 1 5 C0.01 5 -0.98 5 -2 5 C-2 6.32 -2 7.64 -2 9 C-2.66 9 -3.32 9 -4 9 C-4.33 9.66 -4.66 10.32 -5 11 C-5.99 11 -6.98 11 -8 11 C-8.4021875 12.1446875 -8.4021875 12.1446875 -8.8125 13.3125 C-9.94424112 15.87380884 -10.91223401 17.19692938 -13 19 C-13 13.93903602 -9.9762083 9.97051716 -7 6 C-3.6875 4.0625 -3.6875 4.0625 -1 3 C-0.67 2.01 -0.34 1.02 0 0 Z " fill="#1BBE72" transform="translate(46,40)"/>
<path d="M0 0 C0 0.66 0 1.32 0 2 C-0.66 2 -1.32 2 -2 2 C-2.33644531 2.82757813 -2.33644531 2.82757813 -2.6796875 3.671875 C-4.40385183 6.71211744 -6.62515822 8.81425673 -9.125 11.25 C-10.03507812 12.14203125 -10.94515625 13.0340625 -11.8828125 13.953125 C-12.58148438 14.62859375 -13.28015625 15.3040625 -14 16 C-14.33 14.68 -14.66 13.36 -15 12 C-14.01 12 -13.02 12 -12 12 C-11.34 10.35 -10.68 8.7 -10 7 C-9.01 7 -8.02 7 -7 7 C-7 5.68 -7 4.36 -7 3 C-4.49515403 0.58152803 -3.53986194 0 0 0 Z " fill="#6AC8A1" transform="translate(59,33)"/>
<path d="M0 0 C0.66 0 1.32 0 2 0 C3.65625 1.6796875 3.65625 1.6796875 5.5 3.875 C7.28933258 5.99035504 9.04019124 8.04019124 11 10 C11 10.99 11 11.98 11 13 C6.16869714 10.92944163 2.82776494 7.38303566 0 3 C0 2.01 0 1.02 0 0 Z " fill="#66CCA1" transform="translate(118,41)"/>
<path d="M0 0 C-0.66 1.32 -1.32 2.64 -2 4 C-2.66 4 -3.32 4 -4 4 C-4 4.66 -4 5.32 -4 6 C-7.09007389 9.61980085 -9.17965738 11.58682778 -14 12 C-14 10 -14 10 -12.390625 8.37890625 C-11.68421875 7.77949219 -10.9778125 7.18007813 -10.25 6.5625 C-9.20585938 5.66724609 -9.20585938 5.66724609 -8.140625 4.75390625 C-2.33853007 0 -2.33853007 0 0 0 Z " fill="#2FC27B" transform="translate(47,27)"/>
<path d="M0 0 C0.99 0 1.98 0 3 0 C3 0.66 3 1.32 3 2 C3.99 2 4.98 2 6 2 C6 2.66 6 3.32 6 4 C6.66 4.33 7.32 4.66 8 5 C7.67 5.66 7.34 6.32 7 7 C7.66 7.33 8.32 7.66 9 8 C8.01 8.495 8.01 8.495 7 9 C4.27127689 7.56742037 2.18277634 6.18277634 0 4 C0 2.68 0 1.36 0 0 Z " fill="#3AC084" transform="translate(115,57)"/>
<path d="M0 0 C0.66 0.33 1.32 0.66 2 1 C1.34 2.32 0.68 3.64 0 5 C-0.66 5 -1.32 5 -2 5 C-2 5.66 -2 6.32 -2 7 C-3.75 8.5078125 -3.75 8.5078125 -6 10.125 C-6.7425 10.66382813 -7.485 11.20265625 -8.25 11.7578125 C-8.8275 12.16773437 -9.405 12.57765625 -10 13 C-10.66 12.67 -11.32 12.34 -12 12 C-8.04 8.04 -4.08 4.08 0 0 Z " fill="#70CFA5" transform="translate(18,52)"/>
<path d="M0 0 C2.12508244 3.18762365 2.5020163 5.26512223 3 9 C4.4540625 9.37125 4.4540625 9.37125 5.9375 9.75 C6.948125 10.1625 7.95875 10.575 9 11 C9.875 13.125 9.875 13.125 10 15 C5.11741505 13.60497573 2.77633182 11.20415961 0 7 C-0.3125 3.125 -0.3125 3.125 0 0 Z " fill="#73C9A1" transform="translate(5,148)"/>
<path d="M0 0 C3.11954738 0.33724836 4.6209965 0.6209965 6.875 2.875 C7.24625 3.57625 7.6175 4.2775 8 5 C7.67 5.99 7.34 6.98 7 8 C6.62875 7.525625 6.2575 7.05125 5.875 6.5625 C3.37353038 4.47794198 1.18406582 4.35378509 -2 4 C-1.34 2.68 -0.68 1.36 0 0 Z " fill="#4DC38C" transform="translate(72,16)"/>
<path d="M0 0 C1.32 0.33 2.64 0.66 4 1 C4 1.99 4 2.98 4 4 C4.66 4 5.32 4 6 4 C6.99 5.485 6.99 5.485 8 7 C7.67 7.99 7.34 8.98 7 10 C5.82438854 8.90536178 4.6597511 7.79892814 3.5 6.6875 C2.52546875 5.76517578 2.52546875 5.76517578 1.53125 4.82421875 C0 3 0 3 0 0 Z " fill="#65CA9C" transform="translate(107,50)"/>
<path d="M0 0 C0.33 0.66 0.66 1.32 1 2 C1.66 2 2.32 2 3 2 C3 2.66 3 3.32 3 4 C3.66 4 4.32 4 5 4 C5 4.66 5 5.32 5 6 C5.66 6 6.32 6 7 6 C7.66 7.32 8.32 8.64 9 10 C6.1875 9.8125 6.1875 9.8125 3 9 C0.3297894 5.70674025 0 4.31858974 0 0 Z " fill="#68CBA4" transform="translate(109,31)"/>
<path d="M0 0 C2.69027121 -0.2181301 4.46618158 -0.28470316 6.875 1 C8.74759551 4.32905868 7.66374222 7.31924768 7 11 C5.68 10.67 4.36 10.34 3 10 C3.66 9.34 4.32 8.68 5 8 C5.16687448 5.41645782 5.16687448 5.41645782 5 3 C2.525 2.01 2.525 2.01 0 1 C0 0.67 0 0.34 0 0 Z " fill="#26B673" transform="translate(117,151)"/>
<path d="M0 0 C1.32 0.33 2.64 0.66 4 1 C4 2.98 4 4.96 4 7 C3.01 7 2.02 7 1 7 C1 7.66 1 8.32 1 9 C-0.32 8.67 -1.64 8.34 -3 8 C-2.01 7.34 -1.02 6.68 0 6 C0.2502157 2.91634129 0.2502157 2.91634129 0 0 Z " fill="#44BB86" transform="translate(139,66)"/>
<path d="M0 0 C6.52307692 0.49230769 6.52307692 0.49230769 8.9375 3.0625 C9.288125 3.701875 9.63875 4.34125 10 5 C8.02 5 6.04 5 4 5 C4 4.34 4 3.68 4 3 C2.68 2.67 1.36 2.34 0 2 C0 1.34 0 0.68 0 0 Z " fill="#3AC383" transform="translate(80,7)"/>
<path d="M0 0 C2.25 0.0625 2.25 0.0625 5 1 C6.67849824 3.2308475 7.75999263 5.47405906 9 8 C7.0625 7.25 7.0625 7.25 5 6 C4.25 3.875 4.25 3.875 4 2 C2.68 2.33 1.36 2.66 0 3 C0 2.01 0 1.02 0 0 Z " fill="#20BF78" transform="translate(97,39)"/>
<path d="M0 0 C-0.66 1.32 -1.32 2.64 -2 4 C-2.66 4 -3.32 4 -4 4 C-4 4.66 -4 5.32 -4 6 C-4.99 6.33 -5.98 6.66 -7 7 C-6.61402985 4.20171644 -6.19863427 3.1794116 -4.0625 1.25 C-2 0 -2 0 0 0 Z " fill="#1BC276" transform="translate(47,27)"/>
<path d="M0 0 C2.31 1.98 4.62 3.96 7 6 C5.68 6.33 4.36 6.66 3 7 C3 6.34 3 5.68 3 5 C2.01 4.67 1.02 4.34 0 4 C0 2.68 0 1.36 0 0 Z " fill="#64CD9A" transform="translate(90,12)"/>
<path d="M0 0 C0.66 0.33 1.32 0.66 2 1 C1.34 2.32 0.68 3.64 0 5 C-0.99 5 -1.98 5 -3 5 C-3 5.66 -3 6.32 -3 7 C-3.99 7.33 -4.98 7.66 -6 8 C-6 7.34 -6 6.68 -6 6 C-5.34 6 -4.68 6 -4 6 C-4 5.34 -4 4.68 -4 4 C-3.34 4 -2.68 4 -2 4 C-2 3.34 -2 2.68 -2 2 C-1.34 2 -0.68 2 0 2 C0 1.34 0 0.68 0 0 Z " fill="#87DBB8" transform="translate(50,18)"/>
<path d="M0 0 C1.98 0.66 3.96 1.32 6 2 C5.67 3.32 5.34 4.64 5 6 C2.5 4.6875 2.5 4.6875 0 3 C0 2.01 0 1.02 0 0 Z " fill="#1CC073" transform="translate(91,17)"/>
<path d="M0 0 C0 0.99 0 1.98 0 3 C-5.34883721 8 -5.34883721 8 -8 8 C-8 7.34 -8 6.68 -8 6 C-6.02678947 4.6273318 -4.02456848 3.29572383 -2 2 C-1.34 1.34 -0.68 0.68 0 0 Z " fill="#2FBC7F" transform="translate(14,59)"/>
<path d="M0 0 C1.24546405 2.49092811 0.7767578 3.41080733 0 6 C-1.32 5.67 -2.64 5.34 -4 5 C-4 4.01 -4 3.02 -4 2 C-2.68 1.34 -1.36 0.68 0 0 Z " fill="#10C175" transform="translate(52,34)"/>
<path d="M0 0 C2.97 0.33 5.94 0.66 9 1 C7.515 2.485 7.515 2.485 6 4 C4.02 3.34 2.04 2.68 0 2 C0 1.34 0 0.68 0 0 Z " fill="#14C476" transform="translate(130,71)"/>
<path d="M0 0 C0.33 0.66 0.66 1.32 1 2 C-2.465 4.97 -2.465 4.97 -6 8 C-6.33 7.34 -6.66 6.68 -7 6 C-6.34 5.67 -5.68 5.34 -5 5 C-4.5359375 4.01 -4.5359375 4.01 -4.0625 3 C-3 1 -3 1 0 0 Z " fill="#18C071" transform="translate(28,61)"/>
<path d="M0 0 C0.66 0 1.32 0 2 0 C1.45773019 3.79588866 -0.20127563 5.47211993 -3 8 C-2.45276317 4.62537285 -1.9451 2.91765 0 0 Z " fill="#63C19A" transform="translate(63,25)"/>
<path d="" fill="#4E525B" transform="translate(0,0)"/>
</svg>
